<svg width="80" height="22" viewBox="0 0 80 22" fill="none" xmlns="http://www.w3.org/2000/svg">
<path d="M80 11C80 17.0751 75.0178 22 68.872 22C62.7262 22 57.7441 17.0751 57.7441 11C57.7441 4.92487 62.7262 0 68.872 0C75.0178 0 80 4.92487 80 11Z" fill="#5B9611"/>
<path d="M4.0263 18.2C3.20351 18.2 2.44815 18.0733 1.76024 17.82C1.08582 17.5533 0.499073 17.1667 0 16.66L0.870005 15.2L0.950936 15.02L1.09256 15.1C1.11954 15.1933 1.15326 15.3 1.19373 15.42C1.24768 15.5267 1.34885 15.66 1.49722 15.82C1.84792 16.1 2.24583 16.3267 2.69095 16.5C3.13606 16.66 3.63514 16.74 4.18816 16.74C4.55235 16.74 4.88282 16.6933 5.17956 16.6C5.47631 16.4933 5.73259 16.3533 5.94841 16.18C6.17771 16.0067 6.35306 15.8 6.47446 15.56C6.59585 15.32 6.65655 15.06 6.65655 14.78C6.65655 14.5667 6.62957 14.3733 6.57562 14.2C6.53515 14.0267 6.45422 13.8667 6.33283 13.72C6.21143 13.5733 6.04957 13.4267 5.84724 13.28C5.64492 13.1333 5.38189 12.9733 5.05817 12.8C4.73445 12.6267 4.34328 12.44 3.88467 12.24C3.02141 11.8933 2.3335 11.5267 1.82094 11.14C1.32187 10.7533 0.964424 10.34 0.748609 9.9C0.532794 9.46 0.424886 8.98667 0.424886 8.48C0.424886 7.86667 0.586748 7.32667 0.91047 6.86C1.23419 6.39333 1.68606 6.02667 2.26606 5.76C2.85955 5.49333 3.54746 5.36 4.32979 5.36C4.81538 5.36 5.27398 5.42667 5.70561 5.56C6.15073 5.68 6.56213 5.85333 6.93981 6.08C7.31748 6.30667 7.6547 6.59333 7.95144 6.94L6.98027 8.14L6.85888 8.3L6.71725 8.2C6.70376 8.09333 6.67678 7.98667 6.63632 7.88C6.59585 7.77333 6.50143 7.64 6.35306 7.48C6.05631 7.2 5.73934 7.01333 5.40212 6.92C5.06491 6.81333 4.66026 6.76 4.18816 6.76C3.87793 6.76 3.59467 6.8 3.33839 6.88C3.0956 6.96 2.88653 7.08 2.71118 7.24C2.53583 7.4 2.3942 7.58 2.28629 7.78C2.19187 7.96667 2.14466 8.16667 2.14466 8.38C2.14466 8.59333 2.17164 8.78667 2.22559 8.96C2.27955 9.12 2.36722 9.28 2.48862 9.44C2.61002 9.6 2.77862 9.76667 2.99444 9.94C3.22374 10.1 3.507 10.2667 3.84421 10.44C4.19491 10.6 4.61305 10.78 5.09863 10.98C5.73259 11.2467 6.25864 11.5067 6.67678 11.76C7.09492 12.0133 7.41865 12.2867 7.64795 12.58C7.89074 12.86 8.06609 13.1667 8.174 13.5C8.28191 13.82 8.33586 14.1867 8.33586 14.6C8.33586 15.1733 8.18749 15.74 7.89074 16.3C7.594 16.86 7.12865 17.32 6.49469 17.68C5.86073 18.0267 5.03794 18.2 4.0263 18.2Z" fill="white"/>
<path d="M10.5412 4.66H12.4229V4.82C12.3554 4.9 12.3082 4.98667 12.2812 5.08C12.2677 5.17333 12.261 5.33333 12.261 5.56V10.3C12.4903 9.94 12.7668 9.63333 13.0905 9.38C13.4143 9.12667 13.7515 8.93333 14.1022 8.8C14.4664 8.65333 14.8306 8.58 15.1947 8.58C15.7613 8.58 16.2603 8.71333 16.692 8.98C17.1371 9.23333 17.4743 9.64667 17.7036 10.22C17.9464 10.78 18.0678 11.52 18.0678 12.44V18H16.3682V12.48C16.3682 11.8667 16.3008 11.38 16.1659 11.02C16.031 10.66 15.8422 10.4 15.5994 10.24C15.3701 10.08 15.1003 10 14.7901 10C14.5473 10 14.3045 10.04 14.0617 10.12C13.8189 10.2 13.5896 10.32 13.3738 10.48C13.158 10.6267 12.9624 10.8133 12.7871 11.04C12.6252 11.2533 12.497 11.5 12.4026 11.78C12.3082 12.06 12.261 12.3733 12.261 12.72V18H10.5412V4.66Z" fill="white"/>
<path d="M23.7127 18.22C23.3485 18.22 22.9978 18.1667 22.6606 18.06C22.3369 17.9667 22.0401 17.8133 21.7704 17.6C21.5141 17.3733 21.2848 17.1 21.0824 16.78C20.8936 16.4467 20.7452 16.0533 20.6373 15.6C20.5429 15.1333 20.4957 14.6067 20.4957 14.02L20.5159 8.8H22.2155V14.02C22.2155 14.54 22.2627 14.9867 22.3571 15.36C22.4515 15.72 22.5864 16.0133 22.7618 16.24C22.9371 16.4533 23.1394 16.6067 23.3687 16.7C23.6115 16.7933 23.8611 16.84 24.1173 16.84C24.4276 16.84 24.7176 16.7867 24.9874 16.68C25.2706 16.56 25.5134 16.38 25.7157 16.14C25.9315 15.9 26.1002 15.6 26.2215 15.24C26.3429 14.8667 26.4036 14.4333 26.4036 13.94V8.8H28.1234V16.56C28.1234 16.8133 28.1302 17.06 28.1437 17.3C28.1706 17.5267 28.2313 17.76 28.3257 18H26.6869C26.6195 17.8533 26.5722 17.7067 26.5453 17.56C26.5183 17.4133 26.4981 17.2667 26.4846 17.12C26.4846 16.96 26.4846 16.8067 26.4846 16.66C26.3362 16.9133 26.1608 17.14 25.9585 17.34C25.7697 17.5267 25.5539 17.6867 25.3111 17.82C25.0683 17.9533 24.812 18.0533 24.5422 18.12C24.286 18.1867 24.0094 18.22 23.7127 18.22Z" fill="white"/>
<path d="M35.0228 18.2C33.9976 18.2 33.1141 17.94 32.3723 17.42C31.6304 16.9 31.0572 16.1667 30.6525 15.22C30.2613 14.26 30.0658 13.1467 30.0658 11.88C30.0658 10.8133 30.1669 9.90667 30.3692 9.16C30.5851 8.4 30.8751 7.77333 31.2393 7.28C31.6034 6.78667 32.0014 6.4 32.433 6.12C32.8781 5.84 33.3165 5.64667 33.7481 5.54C34.1932 5.43333 34.5979 5.38 34.9621 5.38C35.4881 5.38 35.9939 5.47333 36.4795 5.66C36.9651 5.83333 37.4102 6.07333 37.8149 6.38C38.2195 6.68667 38.5365 7.06 38.7658 7.5L37.6732 8.46L37.5114 8.6L37.4102 8.48C37.4237 8.37333 37.4102 8.27333 37.3698 8.18C37.3293 8.08667 37.2349 7.95333 37.0865 7.78C36.8977 7.56667 36.7021 7.39333 36.4997 7.26C36.2974 7.11333 36.0681 7.00667 35.8118 6.94C35.569 6.87333 35.2925 6.84 34.9823 6.84C34.6316 6.84 34.2944 6.88667 33.9707 6.98C33.6604 7.07333 33.3704 7.24 33.1007 7.48C32.8309 7.70667 32.5948 8.00667 32.3925 8.38C32.1902 8.74 32.0351 9.19333 31.9272 9.74C31.8193 10.2733 31.7653 10.9 31.7653 11.62C31.7653 12.46 31.8395 13.2 31.9879 13.84C32.1362 14.48 32.352 15.02 32.6353 15.46C32.932 15.8867 33.276 16.2133 33.6672 16.44C34.0718 16.6533 34.5237 16.76 35.0228 16.76C35.1981 16.76 35.3802 16.7533 35.569 16.74C35.7714 16.7133 35.967 16.6733 36.1558 16.62C36.3581 16.5533 36.547 16.4733 36.7223 16.38C36.9111 16.2867 37.0865 16.18 37.2484 16.06V13.32H35.0228V11.88H38.8063V16.9C38.2128 17.34 37.5923 17.6667 36.9449 17.88C36.3109 18.0933 35.6702 18.2 35.0228 18.2Z" fill="white"/>
<path d="M45.0379 18.2C44.3635 18.2 43.743 18.1 43.1765 17.9C42.6235 17.6867 42.1379 17.38 41.7198 16.98C41.3151 16.58 41.0049 16.08 40.7891 15.48C40.5733 14.88 40.4654 14.2 40.4654 13.44C40.4654 12.6667 40.5733 11.98 40.7891 11.38C41.0184 10.78 41.3286 10.2733 41.7198 9.86C42.1109 9.44667 42.5695 9.13333 43.0956 8.92C43.6216 8.69333 44.1814 8.58 44.7749 8.58C45.301 8.58 45.8 8.67333 46.2721 8.86C46.7442 9.03333 47.1489 9.3 47.4861 9.66C47.8368 10.02 48.1133 10.48 48.3156 11.04C48.518 11.5867 48.6191 12.2333 48.6191 12.98C48.6191 13.1 48.6124 13.2333 48.5989 13.38C48.5989 13.5133 48.5921 13.6333 48.5787 13.74H42.1244C42.1514 14.2867 42.2458 14.76 42.4077 15.16C42.583 15.5467 42.8056 15.8667 43.0754 16.12C43.3451 16.36 43.6486 16.54 43.9858 16.66C44.3365 16.78 44.7075 16.84 45.0986 16.84C45.4089 16.84 45.6989 16.8067 45.9686 16.74C46.2519 16.6733 46.5149 16.5667 46.7577 16.42C47.0005 16.2733 47.2231 16.0933 47.4254 15.88L48.3561 16.76C48.0863 17.08 47.7761 17.3533 47.4254 17.58C47.0882 17.7933 46.7172 17.9467 46.3126 18.04C45.9214 18.1467 45.4965 18.2 45.0379 18.2ZM42.1851 12.44H46.8993C46.8993 12.04 46.8454 11.6867 46.7375 11.38C46.6296 11.0733 46.4812 10.8067 46.2924 10.58C46.1035 10.3533 45.8675 10.1867 45.5842 10.08C45.3144 9.96 45.011 9.9 44.6737 9.9C44.3635 9.9 44.0735 9.95333 43.8037 10.06C43.534 10.1533 43.2844 10.3067 43.0551 10.52C42.8393 10.7333 42.6505 11 42.4886 11.32C42.3402 11.6267 42.2391 12 42.1851 12.44Z" fill="white"/>
<path d="M50.9863 18V8.8H52.7061V10.32C52.9354 9.97333 53.2052 9.67333 53.5154 9.42C53.8257 9.15333 54.1629 8.94667 54.5271 8.8C54.9047 8.65333 55.2959 8.58 55.7006 8.58C56.2266 8.58 56.6987 8.71333 57.1168 8.98C57.535 9.23333 57.8722 9.64 58.1285 10.2C58.3848 10.76 58.5129 11.5067 58.5129 12.44V18H56.8134V12.48C56.8134 11.88 56.7459 11.4 56.611 11.04C56.4761 10.68 56.2873 10.42 56.0445 10.26C55.8017 10.0867 55.5252 10 55.215 10C54.9317 10 54.6417 10.0667 54.345 10.2C54.0482 10.32 53.7717 10.4933 53.5154 10.72C53.2726 10.9467 53.077 11.2267 52.9287 11.56C52.7803 11.88 52.7061 12.24 52.7061 12.64V18H50.9863Z" fill="white"/>
<path d="M67.0511 14.6H62.3571L62.6606 13.34H66.7071L67.0511 14.6ZM64.8053 8.9L61.7501 18H60.0708L64.5827 5.36H65.0683L69.5802 18H67.8402L64.8053 8.9Z" fill="white"/>
<path d="M71.8058 18V16.64H74.1528V10.18H71.9272V8.8H75.8928V16.64H78.0374V18H71.8058ZM74.9216 7.02C74.5979 7.02 74.3214 6.90667 74.0921 6.68C73.8627 6.45333 73.7481 6.18667 73.7481 5.88C73.7481 5.54667 73.856 5.27333 74.0718 5.06C74.3011 4.84667 74.5844 4.74 74.9216 4.74C75.2318 4.74 75.5016 4.85333 75.7309 5.08C75.9737 5.30667 76.0951 5.57333 76.0951 5.88C76.0951 6.18667 75.9737 6.45333 75.7309 6.68C75.5016 6.90667 75.2318 7.02 74.9216 7.02Z" fill="white"/>
</svg>
