<svg width="96" height="28" viewBox="0 0 96 28" fill="none" xmlns="http://www.w3.org/2000/svg">
<path d="M96 14C96 21.4558 89.7252 27.5 81.9848 27.5C74.2444 27.5 67.9696 21.4558 67.9696 14C67.9696 6.54416 74.2444 0.5 81.9848 0.5C89.7252 0.5 96 6.54416 96 14Z" fill="#5B9611"/>
<path d="M4.78118 22.74C3.80412 22.74 2.90715 22.588 2.09026 22.284C1.2894 21.964 0.592642 21.5 0 20.892L1.03312 19.14L1.12922 18.924L1.29741 19.02C1.32944 19.132 1.36948 19.26 1.41754 19.404C1.48161 19.532 1.60174 19.692 1.77793 19.884C2.19438 20.22 2.66689 20.492 3.19546 20.7C3.72403 20.892 4.31668 20.988 4.97339 20.988C5.40586 20.988 5.79828 20.932 6.15066 20.82C6.50305 20.692 6.80737 20.524 7.06365 20.316C7.33595 20.108 7.54417 19.86 7.68833 19.572C7.83249 19.284 7.90456 18.972 7.90456 18.636C7.90456 18.38 7.87253 18.148 7.80846 17.94C7.76041 17.732 7.6643 17.54 7.52015 17.364C7.37599 17.188 7.18378 17.012 6.94352 16.836C6.70326 16.66 6.39092 16.468 6.00651 16.26C5.62209 16.052 5.15759 15.828 4.613 15.588C3.58789 15.172 2.771 14.732 2.16234 14.268C1.5697 13.804 1.14524 13.308 0.888963 12.78C0.632685 12.252 0.504547 11.684 0.504547 11.076C0.504547 10.34 0.696755 9.692 1.08117 9.132C1.46559 8.572 2.00217 8.132 2.69092 7.812C3.39568 7.492 4.21256 7.332 5.14157 7.332C5.7182 7.332 6.26278 7.412 6.77534 7.572C7.30391 7.716 7.79244 7.924 8.24093 8.196C8.68941 8.468 9.08985 8.812 9.44223 9.228L8.28898 10.668L8.14482 10.86L7.97664 10.74C7.96062 10.612 7.92859 10.484 7.88054 10.356C7.83249 10.228 7.72036 10.068 7.54417 9.876C7.19179 9.54 6.81538 9.316 6.41495 9.204C6.01452 9.076 5.534 9.012 4.97339 9.012C4.60499 9.012 4.26862 9.06 3.96429 9.156C3.67598 9.252 3.42771 9.396 3.21949 9.588C3.01126 9.78 2.84308 9.996 2.71494 10.236C2.60282 10.46 2.54676 10.7 2.54676 10.956C2.54676 11.212 2.57879 11.444 2.64286 11.652C2.70693 11.844 2.81105 12.036 2.9552 12.228C3.09936 12.42 3.29957 12.62 3.55585 12.828C3.82815 13.02 4.16451 13.22 4.56495 13.428C4.9814 13.62 5.47794 13.836 6.05456 14.076C6.80738 14.396 7.43205 14.708 7.92859 15.012C8.42513 15.316 8.80954 15.644 9.08184 15.996C9.37015 16.332 9.57838 16.7 9.70652 17.1C9.83465 17.484 9.89872 17.924 9.89872 18.42C9.89872 19.108 9.72253 19.788 9.37015 20.46C9.01777 21.132 8.46517 21.684 7.71236 22.116C6.95954 22.532 5.98248 22.74 4.78118 22.74Z" fill="white"/>
<path d="M12.5176 6.492H14.752V6.684C14.6719 6.78 14.6158 6.884 14.5838 6.996C14.5678 7.108 14.5598 7.3 14.5598 7.572V13.26C14.8321 12.828 15.1604 12.46 15.5448 12.156C15.9293 11.852 16.3297 11.62 16.7461 11.46C17.1786 11.284 17.6111 11.196 18.0435 11.196C18.7163 11.196 19.3089 11.356 19.8215 11.676C20.35 11.98 20.7505 12.476 21.0228 13.164C21.3111 13.836 21.4552 14.724 21.4552 15.828V22.5H19.4371V15.876C19.4371 15.14 19.357 14.556 19.1968 14.124C19.0366 13.692 18.8124 13.38 18.5241 13.188C18.2518 12.996 17.9314 12.9 17.563 12.9C17.2747 12.9 16.9864 12.948 16.6981 13.044C16.4098 13.14 16.1375 13.284 15.8812 13.476C15.6249 13.652 15.3927 13.876 15.1845 14.148C14.9922 14.404 14.8401 14.7 14.728 15.036C14.6158 15.372 14.5598 15.748 14.5598 16.164V22.5H12.5176V6.492Z" fill="white"/>
<path d="M28.1585 22.764C27.726 22.764 27.3096 22.7 26.9092 22.572C26.5247 22.46 26.1724 22.276 25.852 22.02C25.5477 21.748 25.2754 21.42 25.0351 21.036C24.8109 20.636 24.6347 20.164 24.5065 19.62C24.3944 19.06 24.3384 18.428 24.3384 17.724L24.3624 11.46H26.3806V17.724C26.3806 18.348 26.4366 18.884 26.5488 19.332C26.6609 19.764 26.8211 20.116 27.0293 20.388C27.2375 20.644 27.4778 20.828 27.7501 20.94C28.0384 21.052 28.3347 21.108 28.639 21.108C29.0074 21.108 29.3518 21.044 29.6721 20.916C30.0085 20.772 30.2968 20.556 30.5371 20.268C30.7934 19.98 30.9936 19.62 31.1377 19.188C31.2819 18.74 31.354 18.22 31.354 17.628V11.46H33.3962V20.772C33.3962 21.076 33.4042 21.372 33.4202 21.66C33.4522 21.932 33.5243 22.212 33.6364 22.5H31.6903C31.6102 22.324 31.5542 22.148 31.5222 21.972C31.4901 21.796 31.4661 21.62 31.4501 21.444C31.4501 21.252 31.4501 21.068 31.4501 20.892C31.2739 21.196 31.0657 21.468 30.8254 21.708C30.6012 21.932 30.3449 22.124 30.0566 22.284C29.7683 22.444 29.4639 22.564 29.1436 22.644C28.8392 22.724 28.5109 22.764 28.1585 22.764Z" fill="white"/>
<path d="M41.5891 22.74C40.3717 22.74 39.3226 22.428 38.4417 21.804C37.5607 21.18 36.88 20.3 36.3994 19.164C35.9349 18.012 35.7027 16.676 35.7027 15.156C35.7027 13.876 35.8228 12.788 36.0631 11.892C36.3193 10.98 36.6637 10.228 37.0962 9.636C37.5287 9.044 38.0012 8.58 38.5137 8.244C39.0423 7.908 39.5629 7.676 40.0754 7.548C40.604 7.42 41.0845 7.356 41.517 7.356C42.1417 7.356 42.7423 7.468 43.3189 7.692C43.8956 7.9 44.4241 8.188 44.9046 8.556C45.3852 8.924 45.7616 9.372 46.0339 9.9L44.7365 11.052L44.5443 11.22L44.4241 11.076C44.4401 10.948 44.4241 10.828 44.3761 10.716C44.328 10.604 44.2159 10.444 44.0397 10.236C43.8155 9.98 43.5832 9.772 43.343 9.612C43.1027 9.436 42.8304 9.308 42.5261 9.228C42.2378 9.148 41.9094 9.108 41.541 9.108C41.1246 9.108 40.7241 9.164 40.3397 9.276C39.9713 9.388 39.6269 9.588 39.3066 9.876C38.9862 10.148 38.7059 10.508 38.4657 10.956C38.2254 11.388 38.0412 11.932 37.9131 12.588C37.7849 13.228 37.7209 13.98 37.7209 14.844C37.7209 15.852 37.809 16.74 37.9852 17.508C38.1613 18.276 38.4176 18.924 38.754 19.452C39.1064 19.964 39.5148 20.356 39.9793 20.628C40.4598 20.884 40.9964 21.012 41.5891 21.012C41.7973 21.012 42.0135 21.004 42.2378 20.988C42.478 20.956 42.7103 20.908 42.9345 20.844C43.1748 20.764 43.399 20.668 43.6072 20.556C43.8315 20.444 44.0397 20.316 44.2319 20.172V16.884H41.5891V15.156H46.0819V21.18C45.3772 21.708 44.6404 22.1 43.8715 22.356C43.1187 22.612 42.3579 22.74 41.5891 22.74Z" fill="white"/>
<path d="M53.4819 22.74C52.6811 22.74 51.9443 22.62 51.2715 22.38C50.6148 22.124 50.0382 21.756 49.5417 21.276C49.0611 20.796 48.6928 20.196 48.4365 19.476C48.1802 18.756 48.0521 17.94 48.0521 17.028C48.0521 16.1 48.1802 15.276 48.4365 14.556C48.7088 13.836 49.0772 13.228 49.5417 12.732C50.0062 12.236 50.5508 11.86 51.1754 11.604C51.8001 11.332 52.4648 11.196 53.1696 11.196C53.7943 11.196 54.3869 11.308 54.9475 11.532C55.5081 11.74 55.9887 12.06 56.3891 12.492C56.8055 12.924 57.1339 13.476 57.3742 14.148C57.6144 14.804 57.7346 15.58 57.7346 16.476C57.7346 16.62 57.7265 16.78 57.7105 16.956C57.7105 17.116 57.7025 17.26 57.6865 17.388H50.0222C50.0542 18.044 50.1664 18.612 50.3586 19.092C50.5668 19.556 50.8311 19.94 51.1514 20.244C51.4718 20.532 51.8322 20.748 52.2326 20.892C52.649 21.036 53.0895 21.108 53.554 21.108C53.9224 21.108 54.2668 21.068 54.5871 20.988C54.9235 20.908 55.2358 20.78 55.5242 20.604C55.8125 20.428 56.0768 20.212 56.317 19.956L57.4222 21.012C57.1019 21.396 56.7335 21.724 56.317 21.996C55.9166 22.252 55.4761 22.436 54.9956 22.548C54.5311 22.676 54.0265 22.74 53.4819 22.74ZM50.0943 15.828H55.6923C55.6923 15.348 55.6283 14.924 55.5001 14.556C55.372 14.188 55.1958 13.868 54.9716 13.596C54.7473 13.324 54.467 13.124 54.1306 12.996C53.8103 12.852 53.4499 12.78 53.0495 12.78C52.6811 12.78 52.3367 12.844 52.0164 12.972C51.696 13.084 51.3997 13.268 51.1274 13.524C50.8711 13.78 50.6469 14.1 50.4547 14.484C50.2785 14.852 50.1583 15.3 50.0943 15.828Z" fill="white"/>
<path d="M60.5456 22.5V11.46H62.5878V13.284C62.8601 12.868 63.1805 12.508 63.5488 12.204C63.9172 11.884 64.3177 11.636 64.7502 11.46C65.1986 11.284 65.6631 11.196 66.1437 11.196C66.7683 11.196 67.3289 11.356 67.8255 11.676C68.322 11.98 68.7225 12.468 69.0268 13.14C69.3311 13.812 69.4833 14.708 69.4833 15.828V22.5H67.4651V15.876C67.4651 15.156 67.385 14.58 67.2248 14.148C67.0647 13.716 66.8404 13.404 66.5521 13.212C66.2638 13.004 65.9354 12.9 65.567 12.9C65.2307 12.9 64.8863 12.98 64.5339 13.14C64.1815 13.284 63.8532 13.492 63.5488 13.764C63.2605 14.036 63.0283 14.372 62.8521 14.772C62.6759 15.156 62.5878 15.588 62.5878 16.068V22.5H60.5456Z" fill="white"/>
<path d="M79.6223 18.42H74.0482L74.4086 16.908H79.2138L79.6223 18.42ZM76.9554 11.58L73.3274 22.5H71.3333L76.6911 7.332H77.2677L82.6255 22.5H80.5593L76.9554 11.58Z" fill="white"/>
<path d="M84.8359 22.5V20.82H87.7911V9.228H85.0041V7.548H92.7164V9.228H89.7612V20.844H92.8606V22.5H84.8359Z" fill="white"/>
</svg>
