<svg width="24" height="25" viewBox="0 0 24 25" fill="none" xmlns="http://www.w3.org/2000/svg">
<path d="M17.99 2.09607C16.9813 1.98909 15.9675 1.93702 14.953 1.94007C11.59 1.94007 9.50005 4.08207 9.50005 7.53007V9.87107H6.67505C6.54244 9.87107 6.41526 9.92375 6.3215 10.0175C6.22773 10.1113 6.17505 10.2385 6.17505 10.3711V14.2211C6.17505 14.3537 6.22773 14.4809 6.3215 14.5746C6.41526 14.6684 6.54244 14.7211 6.67505 14.7211H9.50005V22.4411C9.50005 22.5737 9.55273 22.7009 9.64649 22.7946C9.74026 22.8884 9.86744 22.9411 10 22.9411H13.978C14.1107 22.9411 14.2378 22.8884 14.3316 22.7946C14.4254 22.7009 14.478 22.5737 14.478 22.4411V14.7211H17.294C17.4154 14.7211 17.5327 14.677 17.624 14.597C17.7152 14.5169 17.7743 14.4064 17.79 14.2861L18.287 10.4361C18.2963 10.3655 18.2904 10.2938 18.2697 10.2257C18.249 10.1576 18.214 10.0947 18.167 10.0412C18.1201 9.98772 18.0623 9.94487 17.9974 9.91553C17.9326 9.88619 17.8622 9.87103 17.791 9.87107H14.478V7.91207C14.478 6.94207 14.673 6.53707 15.886 6.53707H17.925C18.0577 6.53707 18.1848 6.48439 18.2786 6.39062C18.3724 6.29685 18.425 6.16968 18.425 6.03707V2.59207C18.4251 2.47068 18.381 2.35341 18.301 2.26214C18.2209 2.17088 18.1104 2.11185 17.99 2.09607ZM17.425 5.53607L15.885 5.53707C13.728 5.53707 13.478 6.89307 13.478 7.91207V10.3721C13.478 10.5045 13.5306 10.6315 13.6241 10.7253C13.7177 10.819 13.8446 10.8718 13.977 10.8721H17.223L16.854 13.7221H13.978C13.8454 13.7221 13.7183 13.7747 13.6245 13.8685C13.5307 13.9623 13.478 14.0895 13.478 14.2221V21.9401H10.5V14.2221C10.5 14.0895 10.4474 13.9623 10.3536 13.8685C10.2598 13.7747 10.1327 13.7221 10 13.7221H7.17605V10.8721H10C10.1327 10.8721 10.2598 10.8194 10.3536 10.7256C10.4474 10.6319 10.5 10.5047 10.5 10.3721V7.53007C10.5 4.65607 12.165 2.94007 14.953 2.94007C15.962 2.94007 16.873 2.99507 17.425 3.04307V5.53607Z" fill="#686970"/>
</svg>
