<svg width="24" height="25" viewBox="0 0 24 25" fill="none" xmlns="http://www.w3.org/2000/svg">
<path d="M17.9898 2.09607C16.981 1.98909 15.9672 1.93702 14.9528 1.94007C11.5898 1.94007 9.4998 4.08207 9.4998 7.53007V9.87107H6.6748C6.5422 9.87107 6.41502 9.92375 6.32125 10.0175C6.22748 10.1113 6.1748 10.2385 6.1748 10.3711V14.2211C6.1748 14.3537 6.22748 14.4809 6.32125 14.5746C6.41502 14.6684 6.5422 14.7211 6.6748 14.7211H9.4998V22.4411C9.4998 22.5737 9.55248 22.7009 9.64625 22.7946C9.74002 22.8884 9.8672 22.9411 9.9998 22.9411H13.9778C14.1104 22.9411 14.2376 22.8884 14.3314 22.7946C14.4251 22.7009 14.4778 22.5737 14.4778 22.4411V14.7211H17.2938C17.4152 14.7211 17.5325 14.677 17.6237 14.597C17.715 14.5169 17.774 14.4064 17.7898 14.2861L18.2868 10.4361C18.2961 10.3655 18.2901 10.2938 18.2694 10.2257C18.2487 10.1576 18.2138 10.0947 18.1668 10.0412C18.1198 9.98772 18.062 9.94487 17.9972 9.91553C17.9323 9.88619 17.862 9.87103 17.7908 9.87107H14.4778V7.91207C14.4778 6.94207 14.6728 6.53707 15.8858 6.53707H17.9248C18.0574 6.53707 18.1846 6.48439 18.2784 6.39062C18.3721 6.29685 18.4248 6.16968 18.4248 6.03707V2.59207C18.4249 2.47068 18.3808 2.35341 18.3007 2.26214C18.2207 2.17088 18.1102 2.11185 17.9898 2.09607ZM17.4248 5.53607L15.8848 5.53707C13.7278 5.53707 13.4778 6.89307 13.4778 7.91207V10.3721C13.4778 10.5045 13.5303 10.6315 13.6239 10.7253C13.7174 10.819 13.8444 10.8718 13.9768 10.8721H17.2228L16.8538 13.7221H13.9778C13.8452 13.7221 13.718 13.7747 13.6243 13.8685C13.5305 13.9623 13.4778 14.0895 13.4778 14.2221V21.9401H10.4998V14.2221C10.4998 14.0895 10.4471 13.9623 10.3534 13.8685C10.2596 13.7747 10.1324 13.7221 9.9998 13.7221H7.1758V10.8721H9.9998C10.1324 10.8721 10.2596 10.8194 10.3534 10.7256C10.4471 10.6319 10.4998 10.5047 10.4998 10.3721V7.53007C10.4998 4.65607 12.1648 2.94007 14.9528 2.94007C15.9618 2.94007 16.8728 2.99507 17.4248 3.04307V5.53607Z" fill="#DBDBE2"/>
</svg>
