<svg width="24" height="25" viewBox="0 0 24 25" fill="none" xmlns="http://www.w3.org/2000/svg">
<path d="M6.78852 2.76703L8.21137 2.33846C8.85908 2.14305 9.55576 2.19003 10.1714 2.47062C10.787 2.75122 11.2794 3.24625 11.5568 3.86332L12.4422 5.83303C12.6808 6.36365 12.7473 6.95566 12.6323 7.52598C12.5173 8.0963 12.2266 8.61631 11.8011 9.01303L10.2539 10.4556C10.2354 10.474 10.2198 10.4951 10.2077 10.5182C10.0457 10.849 10.2917 11.7327 11.0622 13.0682C11.9314 14.5733 12.6025 15.1682 12.9137 15.0765L14.9442 14.455C15.5003 14.2852 16.0956 14.2937 16.6467 14.4792C17.1977 14.6647 17.6769 15.018 18.0171 15.4896L19.2754 17.2322C19.6704 17.7793 19.8534 18.4513 19.7903 19.1232C19.7273 19.7951 19.4225 20.4212 18.9325 20.8853L17.8499 21.9096C17.4735 22.2662 17.0164 22.5264 16.5175 22.6681C16.0187 22.8097 15.4931 22.8286 14.9854 22.723C11.9708 22.0956 9.26995 19.6682 6.85966 15.4939C4.44852 11.317 3.6968 7.75989 4.66537 4.83446C4.82751 4.34469 5.10515 3.90115 5.47484 3.5413C5.84453 3.18146 6.29455 2.91589 6.78852 2.76703ZM7.16137 3.99789C6.86498 4.08716 6.59443 4.24647 6.37259 4.46234C6.15074 4.67822 5.98412 4.94432 5.8868 5.23817C5.05195 7.75903 5.72823 10.9613 7.97395 14.851C10.2179 18.7382 12.6505 20.9239 15.2485 21.4639C15.5531 21.5271 15.8685 21.5157 16.1678 21.4306C16.467 21.3455 16.7413 21.1893 16.9671 20.9753L18.0488 19.9519C18.3127 19.7021 18.477 19.3649 18.511 19.0031C18.5451 18.6413 18.4466 18.2794 18.2339 17.9847L16.9757 16.2413C16.7925 15.9874 16.5346 15.7972 16.2379 15.6973C15.9413 15.5974 15.6208 15.5928 15.3214 15.6842L13.2857 16.3073C12.1594 16.6425 11.0999 15.7039 9.94966 13.7102C8.97509 12.0233 8.63737 10.8045 9.05394 9.95332C9.13509 9.7876 9.24309 9.6416 9.37794 9.51532L10.9251 8.07274C11.1543 7.85913 11.3109 7.57909 11.3729 7.27194C11.4348 6.96479 11.399 6.64595 11.2705 6.36017L10.3842 4.39132C10.2349 4.05897 9.96966 3.79234 9.63811 3.64123C9.30655 3.49013 8.93133 3.46487 8.58252 3.57017L7.16137 3.99789Z" fill="#686970"/>
</svg>
