<svg width="24" height="25" viewBox="0 0 24 25" fill="none" xmlns="http://www.w3.org/2000/svg">
<path d="M6.78839 2.76703L8.21125 2.33846C8.85895 2.14305 9.55564 2.19003 10.1712 2.47062C10.7868 2.75122 11.2793 3.24625 11.5567 3.86332L12.4421 5.83303C12.6807 6.36365 12.7472 6.95566 12.6322 7.52598C12.5172 8.0963 12.2265 8.61631 11.801 9.01303L10.2538 10.4556C10.2353 10.474 10.2197 10.4951 10.2075 10.5182C10.0455 10.849 10.2915 11.7327 11.0621 13.0682C11.9313 14.5733 12.6024 15.1682 12.9135 15.0765L14.9441 14.455C15.5002 14.2852 16.0955 14.2937 16.6466 14.4792C17.1976 14.6647 17.6768 15.018 18.017 15.4896L19.2753 17.2322C19.6703 17.7793 19.8533 18.4513 19.7902 19.1232C19.7272 19.7951 19.4223 20.4212 18.9324 20.8853L17.8498 21.9096C17.4734 22.2662 17.0162 22.5264 16.5174 22.6681C16.0186 22.8097 15.4929 22.8286 14.9853 22.723C11.9707 22.0956 9.26982 19.6682 6.85954 15.4939C4.44839 11.317 3.69668 7.75989 4.66525 4.83446C4.82739 4.34469 5.10503 3.90115 5.47472 3.5413C5.84441 3.18146 6.29443 2.91589 6.78839 2.76703ZM7.16125 3.99789C6.86486 4.08716 6.59431 4.24647 6.37247 4.46234C6.15062 4.67822 5.984 4.94432 5.88668 5.23817C5.05182 7.75903 5.72811 10.9613 7.97382 14.851C10.2178 18.7382 12.6504 20.9239 15.2484 21.4639C15.553 21.5271 15.8684 21.5157 16.1677 21.4306C16.4669 21.3455 16.7412 21.1893 16.967 20.9753L18.0487 19.9519C18.3126 19.7021 18.4768 19.3649 18.5109 19.0031C18.5449 18.6413 18.4465 18.2794 18.2338 17.9847L16.9755 16.2413C16.7924 15.9874 16.5344 15.7972 16.2378 15.6973C15.9411 15.5974 15.6207 15.5928 15.3213 15.6842L13.2855 16.3073C12.1593 16.6425 11.0998 15.7039 9.94954 13.7102C8.97497 12.0233 8.63725 10.8045 9.05382 9.95332C9.13497 9.7876 9.24297 9.6416 9.37782 9.51532L10.925 8.07274C11.1542 7.85913 11.3108 7.57909 11.3727 7.27194C11.4347 6.96479 11.3989 6.64595 11.2704 6.36017L10.3841 4.39132C10.2348 4.05897 9.96954 3.79234 9.63798 3.64123C9.30643 3.49013 8.93121 3.46487 8.58239 3.57017L7.16125 3.99789Z" fill="#DBDBE2"/>
</svg>
