<svg width="18" height="16" viewBox="0 0 18 16" fill="none" xmlns="http://www.w3.org/2000/svg">
<path d="M10.102 15.1476C9.99668 15.0422 9.93751 14.8992 9.93751 14.7501C9.93751 14.6011 9.99668 14.4581 10.102 14.3526L15.8911 8.56263H0.749519C0.600336 8.56263 0.45726 8.50337 0.351772 8.39788C0.246283 8.29239 0.187019 8.14931 0.187019 8.00013C0.187019 7.85094 0.246283 7.70787 0.351772 7.60238C0.45726 7.49689 0.600336 7.43763 0.749519 7.43763L15.8911 7.43763L10.102 1.64763C10.0027 1.541 9.94857 1.39996 9.95114 1.25424C9.95371 1.10851 10.0127 0.969472 10.1158 0.866413C10.2189 0.763353 10.3579 0.704319 10.5036 0.701748C10.6494 0.699177 10.7904 0.753269 10.897 0.852629L17.647 7.60263C17.7524 7.7081 17.8115 7.85107 17.8115 8.00013C17.8115 8.14919 17.7524 8.29216 17.647 8.39763L10.897 15.1476C10.7915 15.253 10.6486 15.3121 10.4995 15.3121C10.3505 15.3121 10.2075 15.253 10.102 15.1476Z" fill="#E7BCFF"/>
</svg>
