<svg width="24" height="25" viewBox="0 0 24 25" fill="none" xmlns="http://www.w3.org/2000/svg">
<path fill-rule="evenodd" clip-rule="evenodd" d="M18.03 8.47007C18.1704 8.6107 18.2493 8.80132 18.2493 9.00007C18.2493 9.19882 18.1704 9.38945 18.03 9.53007L11.03 16.5301C10.8893 16.6705 10.6987 16.7494 10.5 16.7494C10.3012 16.7494 10.1106 16.6705 9.96997 16.5301L5.96997 12.5301C5.89628 12.4614 5.83718 12.3786 5.79619 12.2866C5.7552 12.1946 5.73316 12.0953 5.73138 11.9946C5.7296 11.8939 5.74813 11.7939 5.78585 11.7005C5.82357 11.6071 5.87971 11.5223 5.95093 11.451C6.02215 11.3798 6.10698 11.3237 6.20037 11.2859C6.29376 11.2482 6.39379 11.2297 6.49449 11.2315C6.5952 11.2333 6.69451 11.2553 6.78651 11.2963C6.87851 11.3373 6.96131 11.3964 7.02997 11.4701L10.5 14.9401L16.97 8.47007C17.1106 8.32962 17.3012 8.25073 17.5 8.25073C17.6987 8.25073 17.8893 8.32962 18.03 8.47007Z" fill="#18181A"/>
</svg>
