<svg width="24" height="25" viewBox="0 0 24 25" fill="none" xmlns="http://www.w3.org/2000/svg">
<path fill-rule="evenodd" clip-rule="evenodd" d="M18.0299 8.47007C18.1704 8.6107 18.2492 8.80132 18.2492 9.00007C18.2492 9.19882 18.1704 9.38945 18.0299 9.53007L11.0299 16.5301C10.8893 16.6705 10.6987 16.7494 10.4999 16.7494C10.3012 16.7494 10.1105 16.6705 9.96991 16.5301L5.96991 12.5301C5.89622 12.4614 5.83712 12.3786 5.79613 12.2866C5.75514 12.1946 5.73309 12.0953 5.73132 11.9946C5.72954 11.8939 5.74807 11.7939 5.78579 11.7005C5.82351 11.6071 5.87965 11.5223 5.95087 11.451C6.02209 11.3798 6.10692 11.3237 6.20031 11.2859C6.2937 11.2482 6.39373 11.2297 6.49443 11.2315C6.59513 11.2333 6.69445 11.2553 6.78645 11.2963C6.87845 11.3373 6.96125 11.3964 7.02991 11.4701L10.4999 14.9401L16.9699 8.47007C17.1105 8.32962 17.3012 8.25073 17.4999 8.25073C17.6987 8.25073 17.8893 8.32962 18.0299 8.47007Z" fill="white"/>
</svg>
