<svg width="24" height="24" viewBox="0 0 24 24" fill="none" xmlns="http://www.w3.org/2000/svg">
<path d="M9.92295 16.5H13.4999V15.5H9.92295V16.5ZM9.92295 12.5H16.4999V11.5H9.92295V12.5ZM7.49995 8.5H16.4999V7.5H7.49995V8.5ZM2.99995 21V20H5.70395C4.90395 19.6933 4.24861 19.1843 3.73795 18.473C3.22661 17.7617 2.97095 16.9503 2.97095 16.039C2.97095 14.863 3.38528 13.8637 4.21395 13.041C5.04328 12.219 6.04561 11.808 7.22095 11.808V12.808C6.31761 12.808 5.54995 13.1227 4.91795 13.752C4.28661 14.3813 3.97095 15.15 3.97095 16.058C3.97095 16.836 4.21261 17.5197 4.69595 18.109C5.17928 18.6983 5.79361 19.073 6.53895 19.233V16.462H7.53895V21H2.99995ZM9.92295 20V19H18.3849C18.5383 19 18.6793 18.936 18.8079 18.808C18.9366 18.68 19.0006 18.5387 18.9999 18.384V5.616C18.9999 5.462 18.9359 5.32067 18.8079 5.192C18.6799 5.06333 18.5386 4.99933 18.3839 5H5.61595C5.46195 5 5.32061 5.064 5.19195 5.192C5.06328 5.32 4.99928 5.46133 4.99995 5.616V9.423H3.99995V5.616C3.99995 5.15533 4.15428 4.771 4.46295 4.463C4.77161 4.155 5.15595 4.00067 5.61595 4H18.3849C18.8449 4 19.2293 4.15433 19.5379 4.463C19.8466 4.77167 20.0006 5.156 19.9999 5.616V18.385C19.9999 18.845 19.8459 19.2293 19.5379 19.538C19.2299 19.8467 18.8453 20.0007 18.3839 20H9.92295Z" fill="#18181A"/>
</svg>
