<svg width="24" height="24" viewBox="0 0 24 24" fill="none" xmlns="http://www.w3.org/2000/svg">
<path d="M3.51562 16.0278L3.52935 16.014L8.45859 11.0848L8.45873 11.0847L8.49188 11.1178C8.50931 11.1002 8.53004 11.0863 8.55289 11.0768C8.57574 11.0673 8.60025 11.0624 8.625 11.0624C8.64975 11.0624 8.67426 11.0673 8.69711 11.0768C8.71996 11.0863 8.74069 11.1002 8.75812 11.1178L3.51562 16.0278ZM3.51562 16.0278V16.0472V18.75C3.51562 18.8122 3.54032 18.8718 3.58427 18.9157C3.62823 18.9597 3.68784 18.9844 3.75 18.9844H16.5778H16.691L16.611 18.9044L8.79141 11.0848L3.51562 16.0278ZM16.9119 13.3337C16.8901 13.312 16.8643 13.2947 16.8358 13.2829C16.8074 13.2711 16.7769 13.265 16.7461 13.265C16.7153 13.265 16.6848 13.2711 16.6563 13.2829C16.6279 13.2947 16.602 13.312 16.5803 13.3337C16.5803 13.3337 16.5803 13.3337 16.5803 13.3337L14.5731 15.3419L14.54 15.375L14.5731 15.4081L18.1356 18.9706L18.1493 18.9844H18.1688H20.2496M16.9119 13.3337L16.8787 13.3669L16.9119 13.3337L16.9119 13.3337ZM16.9119 13.3337L20.4744 16.8962L20.4881 16.91V16.9294V18.75C20.4881 18.7812 20.4819 18.812 20.4698 18.8408C20.4578 18.8695 20.4401 18.8956 20.4178 18.9174C20.3956 18.9392 20.3692 18.9564 20.3402 18.9679C20.3114 18.9793 20.2806 18.9849 20.2496 18.9844M20.2496 18.9844C20.2494 18.9844 20.2492 18.9844 20.2491 18.9844L20.25 18.9375V18.9844H20.2496ZM20.4044 15.3678L20.4844 15.4479V15.3347V5.25C20.4844 5.18784 20.4597 5.12823 20.4157 5.08427C20.3718 5.04032 20.3122 5.01562 20.25 5.01562H3.75C3.68784 5.01562 3.62823 5.04032 3.58427 5.08427C3.54032 5.12823 3.51562 5.18784 3.51562 5.25V14.4562V14.5694L3.59565 14.4894L7.73002 10.355C7.84755 10.2375 7.98708 10.1442 8.14064 10.0806C8.2942 10.017 8.45878 9.98428 8.625 9.98428C8.79122 9.98428 8.9558 10.017 9.10936 10.0806C9.26292 10.1442 9.40245 10.2375 9.51998 10.355L13.7772 14.6131L13.8103 14.6463L13.8435 14.6131L15.8516 12.605C15.9691 12.4875 16.1086 12.3942 16.2622 12.3306C16.4158 12.267 16.5803 12.2343 16.7466 12.2343C16.9128 12.2343 17.0774 12.267 17.2309 12.3306C17.3845 12.3942 17.524 12.4875 17.6415 12.605L20.4044 15.3678ZM3.75 3.98438H20.25C20.5857 3.98438 20.9076 4.11772 21.1449 4.35507C21.3823 4.59242 21.5156 4.91434 21.5156 5.25V18.75C21.5156 19.0857 21.3823 19.4076 21.1449 19.6449C20.9076 19.8823 20.5857 20.0156 20.25 20.0156H3.75C3.41434 20.0156 3.09242 19.8823 2.85507 19.6449C2.61772 19.4076 2.48438 19.0857 2.48438 18.75V5.25C2.48438 4.91434 2.61772 4.59242 2.85507 4.35507C3.09242 4.11772 3.41434 3.98438 3.75 3.98438ZM13.7344 9.375C13.7344 9.19885 13.7866 9.02666 13.8845 8.8802C13.9823 8.73373 14.1214 8.61958 14.2842 8.55217C14.4469 8.48476 14.626 8.46712 14.7988 8.50149C14.9715 8.53585 15.1302 8.62068 15.2548 8.74523C15.3793 8.86979 15.4641 9.02848 15.4985 9.20125C15.5329 9.37401 15.5152 9.55309 15.4478 9.71583C15.3804 9.87857 15.2663 10.0177 15.1198 10.1155C14.9733 10.2134 14.8011 10.2656 14.625 10.2656C14.3888 10.2656 14.1623 10.1718 13.9952 10.0048C13.8282 9.83774 13.7344 9.61121 13.7344 9.375Z" fill="white" stroke="white" stroke-width="0.09375"/>
</svg>
