<svg width="24" height="24" viewBox="0 0 24 24" fill="none" xmlns="http://www.w3.org/2000/svg">
<path d="M17.8125 14.7656H17.7656V14.8125V16.6875V16.7344H17.8125H19.5C19.6368 16.7344 19.7679 16.7887 19.8646 16.8854C19.9613 16.9821 20.0156 17.1132 20.0156 17.25C20.0156 17.3868 19.9613 17.5179 19.8646 17.6146C19.7679 17.7113 19.6368 17.7656 19.5 17.7656H17.8125H17.7656V17.8125V19.5C17.7656 19.6368 17.7113 19.7679 17.6146 19.8646C17.5179 19.9613 17.3868 20.0156 17.25 20.0156C17.1132 20.0156 16.9821 19.9613 16.8854 19.8646C16.7887 19.7679 16.7344 19.6368 16.7344 19.5V14.25C16.7344 14.1132 16.7887 13.9821 16.8854 13.8854C16.9821 13.7887 17.1132 13.7344 17.25 13.7344H20.25C20.3868 13.7344 20.5179 13.7887 20.6146 13.8854C20.7113 13.9821 20.7656 14.1132 20.7656 14.25C20.7656 14.3868 20.7113 14.5179 20.6146 14.6146C20.5179 14.7113 20.3868 14.7656 20.25 14.7656H17.8125ZM5.0625 18.5156H5.01562V18.5625V19.5C5.01562 19.6368 4.9613 19.7679 4.8646 19.8646C4.7679 19.9613 4.63675 20.0156 4.5 20.0156C4.36325 20.0156 4.2321 19.9613 4.1354 19.8646C4.0387 19.7679 3.98438 19.6368 3.98438 19.5V14.25C3.98438 14.1132 4.0387 13.9821 4.1354 13.8854C4.2321 13.7887 4.36325 13.7344 4.5 13.7344H6C6.63403 13.7344 7.2421 13.9862 7.69043 14.4346C8.13876 14.8829 8.39062 15.491 8.39062 16.125C8.39062 16.759 8.13876 17.3671 7.69043 17.8154C7.2421 18.2638 6.63403 18.5156 6 18.5156H5.0625ZM5.0625 14.7656H5.01562V14.8125V17.4375V17.4844H5.0625H6C6.36053 17.4844 6.70629 17.3412 6.96122 17.0862C7.21616 16.8313 7.35938 16.4855 7.35938 16.125C7.35938 15.7645 7.21616 15.4187 6.96122 15.1638C6.70629 14.9088 6.36053 14.7656 6 14.7656H5.0625ZM11.0625 14.7656H11.0156V14.8125V18.9375V18.9844H11.0625H12C12.5594 18.9844 13.096 18.7621 13.4916 18.3666C13.8871 17.971 14.1094 17.4344 14.1094 16.875C14.1094 16.3156 13.8871 15.779 13.4916 15.3834C13.096 14.9879 12.5594 14.7656 12 14.7656H11.0625ZM14.25 2.48438L14.25 2.48438C14.3179 2.48432 14.3851 2.49765 14.4477 2.52361C14.5104 2.54956 14.5673 2.58763 14.6153 2.63563L14.6153 2.63565L19.8652 7.88559C19.9616 7.98233 20.0157 8.11338 20.0156 8.24996V8.25V10.5C20.0156 10.6368 19.9613 10.7679 19.8646 10.8646C19.7679 10.9613 19.6368 11.0156 19.5 11.0156C19.3632 11.0156 19.2321 10.9613 19.1354 10.8646C19.0387 10.7679 18.9844 10.6368 18.9844 10.5V8.8125V8.76562H18.9375H14.25C14.1132 8.76562 13.9821 8.7113 13.8854 8.6146C13.7887 8.5179 13.7344 8.38675 13.7344 8.25V3.5625V3.51563H13.6875H5.25C5.18784 3.51563 5.12823 3.54032 5.08427 3.58427C5.04032 3.62823 5.01562 3.68784 5.01562 3.75V10.5C5.01562 10.6368 4.9613 10.7679 4.8646 10.8646C4.7679 10.9613 4.63675 11.0156 4.5 11.0156C4.36325 11.0156 4.2321 10.9613 4.1354 10.8646C4.0387 10.7679 3.98438 10.6368 3.98438 10.5V3.75C3.98438 3.41434 4.11772 3.09242 4.35507 2.85507C4.59242 2.61772 4.91434 2.48438 5.25 2.48438L14.25 2.48438ZM14.7656 7.6875V7.73438H14.8125H18.1425H18.2557L18.1756 7.65435L14.8456 4.32435L14.7656 4.24433V4.3575V7.6875ZM15.1406 16.875C15.1406 17.7079 14.8097 18.5068 14.2208 19.0958C13.6318 19.6847 12.8329 20.0156 12 20.0156H10.5C10.3632 20.0156 10.2321 19.9613 10.1354 19.8646C10.0387 19.7679 9.98438 19.6368 9.98438 19.5V14.25C9.98438 14.1132 10.0387 13.9821 10.1354 13.8854C10.2321 13.7887 10.3632 13.7344 10.5 13.7344H12C12.8329 13.7344 13.6318 14.0653 14.2208 14.6542C14.8097 15.2432 15.1406 16.0421 15.1406 16.875Z" fill="white" stroke="white" stroke-width="0.09375"/>
</svg>
