<svg width="24" height="24" viewBox="0 0 24 24" fill="none" xmlns="http://www.w3.org/2000/svg">
<path d="M21.0015 7.62824C21.0016 7.51421 20.9705 7.40233 20.9116 7.3047C20.8527 7.20707 20.7682 7.12742 20.6672 7.07438C20.5663 7.02133 20.4528 6.99691 20.339 7.00376C20.2251 7.01062 20.1153 7.04847 20.0215 7.11324L20.0214 7.11328L15.8579 9.98828L15.75 10.0628V10.194V13.805V13.9362L15.8579 14.0107L20.0214 16.8857L20.0215 16.8858C20.1153 16.9505 20.225 16.9883 20.3387 16.9952C20.4525 17.0021 20.566 16.9778 20.6669 16.9248C20.7678 16.8719 20.8523 16.7923 20.9113 16.6948C20.9703 16.5973 21.0015 16.4855 21.0015 16.3716V16.3715V7.62824ZM21.0015 7.62824L20.7515 7.628M21.0015 7.62824V7.628H20.7515M20.7515 7.628V16.3715C20.7515 16.4399 20.7328 16.5069 20.6974 16.5654C20.662 16.624 20.6113 16.6717 20.5507 16.7034C20.4902 16.7352 20.4221 16.7498 20.3538 16.7457C20.2856 16.7415 20.2198 16.7188 20.1635 16.68L16 13.805V10.194L20.1635 7.319C20.2198 7.28014 20.2857 7.25742 20.354 7.25331C20.4223 7.2492 20.4904 7.26385 20.5509 7.29568C20.6115 7.32751 20.6622 7.3753 20.6976 7.43387C20.7329 7.49245 20.7516 7.55958 20.7515 7.628ZM16.142 15.1188L15.75 14.8481V15.3245V15.875C15.75 16.6375 15.4471 17.3688 14.9079 17.9079C14.3688 18.4471 13.6375 18.75 12.875 18.75H5.125C4.3625 18.75 3.63124 18.4471 3.09207 17.9079C2.5529 17.3688 2.25 16.6375 2.25 15.875V8.125C2.25 7.3625 2.5529 6.63124 3.09207 6.09207C3.63124 5.5529 4.3625 5.25 5.125 5.25H12.875C13.6375 5.25 14.3688 5.5529 14.9079 6.09207C15.4471 6.63124 15.75 7.3625 15.75 8.125V8.6755V9.15197L16.1421 8.88121L19.5955 6.49625C19.5955 6.49624 19.5955 6.49623 19.5956 6.49621C20.5077 5.86674 21.7515 6.51952 21.7515 7.628V16.3715C21.7515 17.48 20.5077 18.1328 19.5955 17.5033C19.5955 17.5033 19.5955 17.5033 19.5955 17.5032L16.142 15.1188ZM3.6224 6.6224C3.22388 7.02091 3 7.56141 3 8.125V15.875C3 16.4386 3.22388 16.9791 3.6224 17.3776C4.02091 17.7761 4.56141 18 5.125 18H12.875C13.4386 18 13.9791 17.7761 14.3776 17.3776C14.7761 16.9791 15 16.4386 15 15.875V8.125C15 7.56142 14.7761 7.02091 14.3776 6.6224C13.9791 6.22388 13.4386 6 12.875 6H5.125C4.56141 6 4.02091 6.22388 3.6224 6.6224Z" fill="white" stroke="white" stroke-width="0.5"/>
</svg>
