<svg width="24" height="24" viewBox="0 0 24 24" fill="none" xmlns="http://www.w3.org/2000/svg">
<path d="M5.125 5C4.2962 5 3.50134 5.32924 2.91529 5.91529C2.32924 6.50134 2 7.2962 2 8.125V15.875C2 16.7038 2.32924 17.4987 2.91529 18.0847C3.50134 18.6708 4.2962 19 5.125 19H12.875C13.7038 19 14.4987 18.6708 15.0847 18.0847C15.6708 17.4987 16 16.7038 16 15.875V15.3245L19.4535 17.709C20.5315 18.453 22.0015 17.6815 22.0015 16.3715V7.628C22.0015 6.318 20.5315 5.5465 19.4535 6.2905L16 8.6755V8.125C16 7.2962 15.6708 6.50134 15.0847 5.91529C14.4987 5.32924 13.7038 5 12.875 5H5.125ZM16 10.194L20.1635 7.319C20.2198 7.28014 20.2857 7.25742 20.354 7.25331C20.4223 7.2492 20.4904 7.26385 20.5509 7.29568C20.6115 7.32751 20.6622 7.3753 20.6976 7.43387C20.7329 7.49245 20.7516 7.55958 20.7515 7.628V16.3715C20.7515 16.4399 20.7328 16.5069 20.6974 16.5654C20.662 16.624 20.6113 16.6717 20.5507 16.7034C20.4902 16.7352 20.4221 16.7498 20.3538 16.7457C20.2856 16.7415 20.2198 16.7188 20.1635 16.68L16 13.805V10.194ZM3.25 8.125C3.25 7.62772 3.44754 7.15081 3.79917 6.79917C4.15081 6.44754 4.62772 6.25 5.125 6.25H12.875C13.3723 6.25 13.8492 6.44754 14.2008 6.79917C14.5525 7.15081 14.75 7.62772 14.75 8.125V15.875C14.75 16.3723 14.5525 16.8492 14.2008 17.2008C13.8492 17.5525 13.3723 17.75 12.875 17.75H5.125C4.62772 17.75 4.15081 17.5525 3.79917 17.2008C3.44754 16.8492 3.25 16.3723 3.25 15.875V8.125Z" fill="#18181A"/>
</svg>
