<svg width="24" height="24" viewBox="0 0 24 24" fill="none" xmlns="http://www.w3.org/2000/svg">
<path d="M21.2651 14.7349L21.2651 14.735C21.3354 14.8052 21.375 14.9006 21.375 15C21.375 15 21.375 15.0001 21.375 15.0001V17.25C21.375 17.3495 21.3355 17.4448 21.2652 17.5152C21.1948 17.5855 21.0995 17.625 21 17.625H15.75H15.375V18V18.7496C15.3745 19.2212 15.2752 19.6875 15.0837 20.1184C14.8922 20.5494 14.6125 20.9355 14.2628 21.2519C13.9131 21.5683 13.501 21.808 13.0531 21.9556C12.6068 22.1026 12.1348 22.155 11.6672 22.1093C10.8167 22 10.0362 21.5811 9.47499 20.9327C8.91261 20.283 8.60991 19.4485 8.62494 18.5893L8.625 18.5893V18.5828V18V17.625H8.25H3C2.90054 17.625 2.80516 17.5855 2.73483 17.5152C2.66451 17.4448 2.625 17.3495 2.625 17.25V15.0001C2.625 15.0001 2.625 15 2.625 15C2.62504 14.9006 2.66456 14.8052 2.73487 14.735L2.73491 14.7349L4.76516 12.7047L4.875 12.5948V12.4395L4.875 9.75047C4.875 9.75041 4.875 9.75034 4.875 9.75028C4.87726 7.98453 5.53414 6.28232 6.71864 4.97279C7.90318 3.66322 9.53123 2.83938 11.288 2.66057L11.625 2.62627V2.2875V1.125H12.375V2.2875V2.62627L12.712 2.66057C14.4688 2.83938 16.0968 3.66322 17.2814 4.97279C18.4659 6.28237 19.1228 7.98465 19.125 9.75047V12.4395V12.5948L19.2348 12.7047L21.2651 14.7349ZM9.75 17.625H9.375V18V18.75C9.375 19.4462 9.65156 20.1139 10.1438 20.6062C10.6361 21.0984 11.3038 21.375 12 21.375C12.6962 21.375 13.3639 21.0984 13.8562 20.6062C14.3484 20.1139 14.625 19.4462 14.625 18.75V18V17.625H14.25H9.75ZM20.25 16.875H20.625V16.5V15.3105V15.1552L20.5152 15.0453L18.4849 13.0151L18.4849 13.015C18.4146 12.9448 18.375 12.8494 18.375 12.75C18.375 12.75 18.375 12.7499 18.375 12.7499V9.75C18.375 8.05924 17.7034 6.43774 16.5078 5.24219C15.3123 4.04665 13.6908 3.375 12 3.375C10.3092 3.375 8.68774 4.04665 7.49219 5.24219C6.29665 6.43774 5.625 8.05924 5.625 9.75V12.7499C5.625 12.7499 5.625 12.75 5.625 12.75C5.62496 12.8494 5.58544 12.9448 5.51513 13.015L5.51508 13.0151L3.48484 15.0453L3.375 15.1552V15.3105V16.5V16.875H3.75H20.25Z" fill="#1D2126" stroke="white" stroke-width="0.75"/>
</svg>
