<svg width="24" height="24" viewBox="0 0 24 24" fill="none" xmlns="http://www.w3.org/2000/svg">
<g clip-path="url(#clip0_2515_7954)">
<path d="M13.0667 14.0666H13.4V13.7333V10.2666V9.93325H13.0667H10.9333H10.6V10.2666V13.7333V14.0666H10.9333H13.0667ZM10.6667 9.66659H13.3333C13.4217 9.66659 13.5065 9.7017 13.569 9.76422C13.6315 9.82673 13.6667 9.91151 13.6667 9.99992V13.9999C13.6667 14.0883 13.6315 14.1731 13.569 14.2356C13.5065 14.2981 13.4217 14.3333 13.3333 14.3333H10.6667C10.5783 14.3333 10.4935 14.2981 10.431 14.2356C10.3685 14.1731 10.3333 14.0883 10.3333 13.9999V9.99992C10.3333 9.91151 10.3685 9.82673 10.431 9.76422C10.4935 9.7017 10.5783 9.66659 10.6667 9.66659Z" fill="#1D2126" stroke="white" stroke-width="0.666667"/>
<path d="M15.614 5.33341V5.66675H15.9473H19.2798C19.3669 5.66726 19.4503 5.70183 19.5122 5.76307C19.5124 5.76318 19.5125 5.7633 19.5126 5.76341L22.2373 8.48815C22.2374 8.48827 22.2376 8.48838 22.2377 8.4885C22.2989 8.55038 22.3334 8.63374 22.334 8.72076V18.6667C22.334 18.932 22.2286 19.1863 22.0411 19.3739C21.8536 19.5614 21.5992 19.6667 21.334 19.6667H2.66733C2.40211 19.6667 2.14776 19.5614 1.96022 19.3739C1.77269 19.1863 1.66733 18.932 1.66733 18.6667L1.66733 8.72675L1.66732 8.72482C1.66707 8.68095 1.67548 8.63747 1.69207 8.59685C1.70861 8.55635 1.73296 8.51951 1.76373 8.48842C1.76382 8.48833 1.7639 8.48824 1.76399 8.48816L4.48207 5.76341C4.48224 5.76324 4.4824 5.76308 4.48257 5.76291C4.51361 5.73225 4.55037 5.70798 4.59077 5.69149C4.63138 5.6749 4.67487 5.66649 4.71873 5.66674V5.66675H4.72066H8.00066H8.334V5.33341V4.03341V4.02199L8.33321 4.01059C8.32454 3.88424 8.34131 3.75744 8.38252 3.63769C8.42374 3.51793 8.48856 3.40767 8.57315 3.31342C8.65775 3.21917 8.76039 3.14286 8.87501 3.08899C8.9878 3.03598 9.10993 3.00578 9.23438 3.00008H14.6602C14.9206 3.01202 15.1661 3.12512 15.3443 3.31545C15.524 3.50726 15.6209 3.7621 15.6141 4.02482L15.614 4.02482V4.03341V5.33341ZM9.334 3.66675H9.00066V4.00008V5.33341V5.66675H9.334H14.6673H15.0007V5.33341V4.00008V3.66675H14.6673H9.334ZM21.334 11.6667H21.6673V11.3334V9.00008V8.86201L21.5697 8.76438L19.2364 6.43105L19.1387 6.33341H19.0007H5.00066H4.86259L4.76496 6.43105L2.43163 8.76438L2.334 8.86201V9.00008V11.3334V11.6667H2.66733H9.00066V12.2867H2.66733H2.334V12.6201V18.6667V19.0001H2.66733H21.334H21.6673V18.6667V12.6201V12.2867H21.334H15.0007V11.6667H21.334Z" fill="#1D2126" stroke="white" stroke-width="0.666667"/>
</g>
<defs>
<clipPath id="clip0_2515_7954">
<rect width="24" height="24" fill="white"/>
</clipPath>
</defs>
</svg>
