<svg width="24" height="24" viewBox="0 0 24 24" fill="none" xmlns="http://www.w3.org/2000/svg">
<g clip-path="url(#clip0_2515_8403)">
<path d="M13.3333 9.33325H10.6667C10.4899 9.33325 10.3203 9.40349 10.1953 9.52851C10.0702 9.65354 10 9.82311 10 9.99992V13.9999C10 14.1767 10.0702 14.3463 10.1953 14.4713C10.3203 14.5963 10.4899 14.6666 10.6667 14.6666H13.3333C13.5101 14.6666 13.6797 14.5963 13.8047 14.4713C13.9298 14.3463 14 14.1767 14 13.9999V9.99992C14 9.82311 13.9298 9.65354 13.8047 9.52851C13.6797 9.40349 13.5101 9.33325 13.3333 9.33325ZM13.0667 13.7333H10.9333V10.2666H13.0667V13.7333Z" fill="#1D2126"/>
<path d="M22.474 8.25342L19.7473 5.52675C19.6232 5.40359 19.4556 5.33415 19.2807 5.33341H15.9473V4.03341C15.9564 3.68312 15.8271 3.34334 15.5876 3.08758C15.3481 2.83183 15.0175 2.68065 14.6673 2.66675H9.22733C9.05622 2.67348 8.88821 2.71448 8.73323 2.78731C8.57825 2.86014 8.43947 2.96333 8.32509 3.09077C8.21071 3.2182 8.12306 3.36729 8.06733 3.52921C8.01161 3.69113 7.98894 3.86258 8.00066 4.03341V5.33341H4.72066C4.63292 5.33291 4.54595 5.34972 4.46472 5.3829C4.3835 5.41608 4.30962 5.46496 4.24733 5.52675L1.52733 8.25342C1.46554 8.31571 1.41666 8.38959 1.38348 8.47081C1.3503 8.55204 1.33349 8.63901 1.334 8.72675V18.6667C1.334 19.0204 1.47447 19.3595 1.72452 19.6096C1.97457 19.8596 2.31371 20.0001 2.66733 20.0001H21.334C21.6876 20.0001 22.0268 19.8596 22.2768 19.6096C22.5269 19.3595 22.6673 19.0204 22.6673 18.6667V8.72008C22.6666 8.54519 22.5972 8.37759 22.474 8.25342ZM9.334 4.00008H14.6673V5.33341H9.334V4.00008ZM21.334 11.3334H14.6673V12.6201H21.334V18.6667H2.66733V12.6201H9.334V11.3334H2.66733V9.00008L5.00066 6.66675H19.0007L21.334 9.00008V11.3334Z" fill="#1D2126"/>
</g>
<defs>
<clipPath id="clip0_2515_8403">
<rect width="24" height="24" fill="white"/>
</clipPath>
</defs>
</svg>
